PathFileType	4	(X/Y/Z)	Patient4_TMGait_0pt7_02_left_20.trc.trc
DataRate	CameraRate	NumFrames	NumMarkers	Units	OrigDataRate	OrigDataStartFrame	OrigNumFrames
84.848484848485	84.848484848485	6	33	mm	84.848484848485	89	       141
Frame#	Time	Sacral			L.Shoulder			Chest			R.Shoulder			Neck			R.ASIS			L.ASIS			R.Thigh.Superior			R.Thigh.Lateral			R.Thigh.Inferior			R.Patella			L.Thigh.Superior			L.Thigh.Lateral			L.Thigh.Inferior			L.Patella			L.Shank.Superior			L.Shank.Lateral			L.Shank.Inferior			R.Shank.Superior			R.Shank.Lateral			R.Shank.Inferior			R.Heel			R.Midfoot.Superior			R.Midfoot.Lateral			R.Toe			L.Heel			L.Midfoot.Lateral			L.Midfoot.Superior			L.Toe			L.Elbow			L.Wrist			R.Elbow			R.Wrist			
		X1	Y1	Z1	X2	Y2	Z2	X3	Y3	Z3	X4	Y4	Z4	X5	Y5	Z5	X6	Y6	Z6	X7	Y7	Z7	X8	Y8	Z8	X9	Y9	Z9	X10	Y10	Z10	X11	Y11	Z11	X12	Y12	Z12	X13	Y13	Z13	X14	Y14	Z14	X15	Y15	Z15	X16	Y16	Z16	X17	Y17	Z17	X18	Y18	Z18	X19	Y19	Z19	X20	Y20	Z20	X21	Y21	Z21	X22	Y22	Z22	X23	Y23	Z23	X24	Y24	Z24	X25	Y25	Z25	X26	Y26	Z26	X27	Y27	Z27	X28	Y28	Z28	X29	Y29	Z29	X30	Y30	Z30	X31	Y31	Z31	X32	Y32	Z32	X33	Y33	Z33	

89	23.687142857143	843.694977814295	999.686452999492	494.594489689761	1038.592132146674	1426.869390997152	314.166869824941	1134.127252746307	1353.022970227685	478.314391140532	1046.631503652215	1433.141476160944	647.670560673550	1037.587638072186	1485.857458477222	468.045186215817	1070.999609791738	932.953898609270	615.265238589081	1058.592183565311	956.669351419290	339.558966581321	1137.671048269523	749.827915084451	583.416635758640	1071.230729765701	631.750750375158	642.503663597162	1158.011011527900	589.941550238846	564.626865549305	1172.762452663294	498.827023367299	572.001456551263	1087.484021039537	734.210161308480	356.201734163940	990.920968488756	625.081633167942	292.320925995191	1074.123806999862	534.841507187007	346.126909693185	1061.984376575191	450.581104208859	342.889164602578	992.314662853950	395.604640931453	338.930937522277	850.691684500814	353.451116842015	292.898664150601	836.438095288251	225.566653053686	350.075453175498	1145.135940092885	408.607734841228	578.911525711999	1076.313841741341	303.162106671540	639.631207913244	1122.061700198771	208.812163325919	579.015004143575	993.230934834742	43.525491981087	549.279168281840	1163.970570304215	98.951429189795	587.947140802312	1075.613194571582	37.553418620315	624.601617427084	1283.747783153843	45.184753748862	617.107879235907	645.880612713853	158.228933157045	389.516057589990	704.870257233250	110.111599481242	312.918285827491	808.128239336039	122.916549079221	334.312163489923	889.756153008633	30.861180789379	315.297351229903	1061.489737861237	1097.525779820458	160.804735281600	1310.690073160249	1048.948634977494	198.581286858035	904.727874977886	1119.534118276132	762.388011218815	888.570456897033	857.093665565420	762.955228126577	
90	23.698928571429	843.130954718237	1000.948753122537	498.079086098924	1037.512226465714	1427.804479958269	316.158894937993	1134.525989238614	1353.693126287561	479.397370878628	1048.781602521493	1433.751115927371	649.492289044577	1037.868736709639	1486.607479599920	470.159763662435	1071.301529758358	933.883832101963	617.034328989774	1057.785343120655	957.606077022213	341.457534661053	1135.756119402921	748.672523990853	586.543483733338	1067.289528910339	631.637082839338	644.596063821402	1153.643060315492	589.036118903093	566.572935395573	1167.260634650664	497.966854474926	573.452210848365	1091.761220642328	736.978314354373	358.655164311582	1000.016986514640	625.397785258708	293.785622129225	1085.973220546607	537.150404103866	347.892202199452	1075.076772005739	451.651728895363	344.093129974738	1003.599479101012	396.907466732821	339.967069927207	860.512143603145	359.712388380257	293.827405722173	842.162026816966	232.169144383225	350.496422874371	1139.032795982712	408.070203438686	580.188954930895	1069.616184930656	302.873404050085	640.509440983015	1114.772150839191	208.492436918658	579.557035828582	985.056698124945	43.563557649520	549.384242306441	1155.871825944736	98.839567979942	588.215426307246	1067.386377871467	37.513324599526	624.707170379142	1275.586064214094	44.729637100024	617.366138978654	649.407220551287	174.736538689267	389.712922517531	705.478447404271	123.009380647314	313.047233938318	809.561458789393	129.105933626226	334.475926740193	884.378360685392	29.937675107158	315.212131991793	1053.303276011109	1095.809981027745	166.195043935028	1300.810947632973	1033.552562121294	199.991734816317	910.411211033914	1118.280142646188	765.165931144794	902.893957781703	855.467988170650	765.259366578628	
91	23.710714285714	842.395826704631	1002.053561430058	501.421506115395	1036.132249770671	1428.530708770683	317.975811773314	1134.741045731886	1354.152088960867	480.242023736101	1050.886341975992	1434.155935254212	651.150843260073	1037.999342300579	1487.189174469868	472.087771068979	1071.409378784812	934.661637768158	618.682151757474	1056.774686981697	958.288175473330	343.210181402369	1133.669075852799	747.586490347694	589.430704638881	1063.435739408925	631.555208430280	646.650346034150	1149.256358866766	588.174260906401	568.407080864410	1161.740211314753	497.136591585333	574.933830036746	1095.871933787814	739.981792252812	361.289731676038	1009.173100242866	626.107209446233	295.206616216170	1097.630720538476	540.008286642454	349.886266419036	1088.176533113771	453.337316767124	345.610351779618	1015.167822075202	398.655595533279	341.193986235199	870.933389932037	365.999494166749	294.791026297885	848.773724428384	238.904195754115	351.102461647649	1132.948694852256	407.525601042001	581.462054317181	1062.943314495065	302.579925461559	641.405061343511	1107.495776776169	208.168919665164	580.102296070440	976.847807735781	43.619144512616	549.499347001211	1147.768383936022	98.678713153728	588.456129895546	1059.128856292343	37.471730296986	624.813170565826	1267.405493040149	44.222463072047	617.590133838669	654.370582756457	190.616799095235	390.063153082763	707.650650118424	135.845839235454	313.245990058709	812.236834944596	135.728055860201	334.772588199330	880.565460651880	29.550299894097	314.995137293278	1045.167639011372	1094.035625358773	171.551565671426	1289.847361672199	1017.067290962361	201.308231030701	916.212918630929	1116.862900993922	767.957693902487	918.380907727593	853.966107278311	767.816542574473	
92	23.722500000000	841.515635905365	1002.998283424952	504.621717334989	1034.482088780804	1429.057480454334	319.606641335282	1134.760285444436	1354.423838464102	480.858912307713	1052.895272737934	1434.397908064111	652.634558324891	1037.991261044621	1487.626086381771	473.797355633593	1071.332444233612	935.317666944581	620.239842145190	1055.482871164068	958.708762661946	344.859285567642	1131.467564193831	746.619441435091	592.011721649855	1059.731509866450	631.512355703179	648.628012668481	1144.928148330993	587.368132767379	570.104934871164	1156.280146130923	496.339573728881	576.397252379035	1099.724221715732	743.244183979067	364.068670874482	1018.189530201017	627.279630523632	296.578223231249	1108.927477046514	543.447639196616	352.010383997231	1101.126080357866	455.682811979226	347.289810371189	1026.875983081738	400.879971360287	342.510913984027	881.766813666673	372.203712697198	295.785147004270	856.256476946213	245.581066130441	351.833593538162	1126.948068509358	406.980052666690	582.697016587451	1056.346501907548	302.305034700987	642.305189880591	1100.257250996355	207.848631616108	580.635362959700	968.612244621976	43.691635401697	549.633406281455	1139.657193638730	98.498884702415	588.677696769421	1050.850480765196	37.436531944438	624.925705233359	1259.208069571328	43.706505912025	617.790081868564	660.713063281413	205.237741755352	390.578386013777	711.476797537192	148.079923787283	313.518955509554	816.304769636662	142.540254412881	335.145108693584	878.790407033976	29.879611496222	314.625005661472	1037.153225189328	1092.187557532804	176.867123651715	1277.634131870968	999.610130821089	202.527476884027	922.223041530460	1115.262713846479	770.713088986737	935.028287652302	852.675720218390	770.485440942875	
93	23.734285714286	840.524933631341	1003.791195985816	507.693472089589	1032.593893513080	1429.406903534026	321.047236852736	1134.575608469766	1354.550431410434	481.266639522706	1054.757219970215	1434.532696334886	653.934256775145	1037.851386330605	1487.950083253724	475.265880816631	1071.085921302459	935.885730200606	621.727672333458	1053.848948907771	958.885366883566	346.450616787327	1129.195329542216	745.788469670523	594.268031057978	1056.179019006858	631.500821255558	650.490983644008	1140.689747577162	586.615672146968	571.654358369929	1150.913461338642	495.572508759929	577.787735389045	1103.248824519935	746.779403254724	366.936615876495	1026.889426704177	628.958485495525	297.889316594953	1119.735258961202	547.478104644766	354.150334258141	1113.796347227354	458.715572563545	348.975058477123	1038.609308418360	403.593274653915	343.810643588507	892.850075322472	378.200010619648	296.797032514647	864.614011606829	251.991954463447	352.622294983939	1121.054615464731	406.437832235163	583.857881495386	1049.843573000855	302.064269860333	643.190679932432	1093.063030217953	207.536842408669	581.139360428870	960.357979557163	43.777800617169	549.788576866721	1131.536244882172	98.323695654354	588.885039085670	1042.560997647315	37.412795280286	625.046413450329	1250.996095975683	43.217440493777	617.973943834305	668.369919776614	218.012113701888	391.258147659074	717.023806983182	159.179894748736	313.863412214901	821.912856053467	149.258968761713	335.534005272772	879.510974237151	31.026399332750	314.088540652111	1029.320649386052	1090.268940067477	182.142374071634	1263.998356540683	981.348619684347	203.659577214964	928.546505835164	1113.476710318238	773.386762211944	952.838640207864	851.702545544734	773.112021782789	
94	23.746071428571	839.461893710390	1004.450781475854	510.657803654958	1030.502149197123	1429.608227224202	322.299859136670	1134.185068470521	1354.582981212408	481.490082008826	1056.428450852931	1434.620925445872	655.044838739620	1037.582115933466	1488.196263611489	476.482527448687	1070.687845930193	936.396554211258	623.151349474485	1051.839741158094	958.859373656237	348.021293707046	1126.875857196818	745.084915724358	596.213072811473	1052.740897255216	631.506109896113	652.206252194249	1136.534076288410	585.906403180876	573.050436947721	1145.634583413665	494.828920258095	579.054884522776	1106.399014773757	750.589399167657	369.822287500543	1035.128843170334	631.156069595795	299.124227296190	1129.964738761297	552.085653982359	356.193009552227	1126.087146387583	462.443145411688	350.527837286962	1050.283178669367	406.787327390643	344.997319821782	904.057511452417	383.850400973499	297.805365453930	873.866602832885	257.926516082875	353.403332226354	1115.258780571322	405.901946667064	584.912016695896	1043.425735796824	301.865996796978	644.040824764162	1085.905308898379	207.236805307982	581.598551203630	952.091111934064	43.873137486278	549.961323217768	1123.404103038537	98.168649341018	589.079583924523	1034.268364505906	37.402943380752	625.173976953473	1242.771507465755	42.780199557135	618.147184179233	677.284587326214	228.452666446842	392.087767163475	724.334670722737	168.673560757284	314.268237765931	829.190348069802	155.583714209322	335.884162501874	883.112059971345	32.976103675113	313.380663005662	1021.718610274064	1088.299751488762	187.380309344155	1248.774386958711	962.510982932056	204.729301727284	935.285236312168	1111.522730624870	775.940594066165	971.807359253698	851.171841798031	775.544545924084	
